# xmcd
# 
# Track frame offsets:
#     150
#     2347
#     25325
#     39262
#     50325
#     64612
#     80612
#     93375
#     108900
#     123725
#     144537
#     163459
#     178950
#     199800
#     211712
# 
# Disc length: 3067
# 
# Revision: 18
# Processed by: cddbd v1.5.2PL0 Copyright (c) Steve Scherf et al.
# Submitted via: fre:ac v1.0.31
# 
DISCID=cb0bf90f
DTITLE=ラッツ&スター - BACK TO THE BASIC～The Very Best of RATS&STAR～ Disc 1
DYEAR=1996
DGENRE=J/Pop
TTITLE0=Introduction～BACK TO THE BASIC～
TTITLE1=サマーナイト・トレイン
TTITLE2=ランナウェイ
TTITLE3=トゥナイト
TTITLE4=街角トワイライト
TTITLE5=涙のスィート・チェリー
TTITLE6=ハリケーン
TTITLE7=憧れのスレンダー・ガール
TTITLE8=胸騒ぎのクリスマス
TTITLE9=Miss You
TTITLE10=レディ・エキセントリック
TTITLE11=め組の人
TTITLE12=Ｔシャツに口紅
TTITLE13=LOVERS NEVER SAY GOOD-BYE
TTITLE14=夢で逢えたら
EXTD=YEAR: 1996
EXTT0=
EXTT1=
EXTT2=
EXTT3=
EXTT4=
EXTT5=
EXTT6=
EXTT7=
EXTT8=
EXTT9=
EXTT10=
EXTT11=
EXTT12=
EXTT13=
EXTT14=
PLAYORDER=
